# xmcd CD database file
#
# Track frame offsets:
#	150
#	17137
#	35625
#	52612
#
# Disc length: 944 seconds
#
# Revision: 0
# Processed by: cddbd v1.5PL3 Copyright (c) Steve Scherf et al.
# Submitted via: CDex 1.51
#
DISCID=2603ae04
DTITLE=MAX - TORA TORA TORA
DYEAR=1996
DGENRE=JPop
TTITLE0=TORA TORA TORA
TTITLE1=SO MUCH IN LOVE
TTITLE2=TORA TORA TORA (ORIGINAL KARAOKE)
TTITLE3=SO MUCH IN LOVE (ORIGINAL KARAOKE)
EXTD=YEAR: 1996
EXTT0=
EXTT1=
EXTT2=
EXTT3=
PLAYORDER=
